<svg xmlns="http://www.w3.org/2000/svg" viewBox="0 0 800 60" width="800" height="60" aria-hidden="true">
<defs>
  <linearGradient id="g" x1="0" y1="0" x2="1" y2="0">
    <stop offset="0" stop-color="rgba(216,178,122,0)"/>
    <stop offset="0.15" stop-color="#f3d6a4"/>
    <stop offset="0.5" stop-color="#d8b27a"/>
    <stop offset="0.85" stop-color="#f3d6a4"/>
    <stop offset="1" stop-color="rgba(216,178,122,0)"/>
  </linearGradient>
</defs>
<path d="M30 30H310" stroke="url(#g)" stroke-width="2.2" stroke-linecap="round"/>
<path d="M490 30H770" stroke="url(#g)" stroke-width="2.2" stroke-linecap="round"/>
<path d="M400 10c26 0 40 20 40 20s-14 20-40 20-40-20-40-20 14-20 40-20z" fill="none" stroke="#f3d6a4" stroke-width="2"/>
<path d="M400 20c12 0 18 10 18 10s-6 10-18 10-18-10-18-10 6-10 18-10z" fill="none" stroke="#d8b27a" stroke-width="2"/>
<path d="M352 30c-22 0-32 0-42 0" stroke="#f3d6a4" stroke-width="2" stroke-linecap="round" opacity="0.9"/>
<path d="M448 30c22 0 32 0 42 0" stroke="#f3d6a4" stroke-width="2" stroke-linecap="round" opacity="0.9"/>
</svg>